<?xml version="1.0" encoding="utf-8"?>
<!-- Generator: Adobe Illustrator 24.1.1, SVG Export Plug-In . SVG Version: 6.00 Build 0)  -->
<svg version="1.1" id="Layer_1" xmlns="http://www.w3.org/2000/svg" xmlns:xlink="http://www.w3.org/1999/xlink" x="0px" y="0px"
	 viewBox="0 0 448 512" style="enable-background:new 0 0 448 512;" xml:space="preserve">
<style type="text/css">
	.st0{fill:#FFFFFF;}
</style>
<path class="st0" d="M400,32H48C21.5,32,0,53.5,0,80v352c0,26.5,21.5,48,48,48h352c26.5,0,48-21.5,48-48V80
	C448,53.5,426.5,32,400,32z"/>
<path d="M127,384.5c-5.5,9.6-17.8,12.8-27.3,7.3c-9.6-5.5-12.8-17.8-7.3-27.3l14.3-24.7c16.1-4.9,29.3-1.1,39.6,11.4L127,384.5z"/>
<path d="M265.9,330.6H84c-11,0-20-9-20-20s9-20,20-20h51l65.4-113.2L179.9,142c-5.5-9.6-2.2-21.8,7.3-27.3
	c9.6-5.5,21.8-2.2,27.3,7.3l8.9,15.4l8.9-15.4c5.5-9.6,17.8-12.8,27.3-7.3c9.6,5.5,12.8,17.8,7.3,27.3l-85.8,148.6h62.1
	C263.4,290.6,274.7,314.3,265.9,330.6L265.9,330.6z"/>
<path d="M364,330.6h-29l19.6,33.9c5.5,9.6,2.2,21.8-7.3,27.3c-9.6,5.5-21.8,2.2-27.3-7.3c-32.9-56.9-57.5-99.7-74-128.1
	c-16.7-29-4.8-58,7.1-67.8c13.1,22.7,32.7,56.7,58.9,102h52c11,0,20,9,20,20C384,321.7,375,330.6,364,330.6L364,330.6z"/>
</svg>
