<?xml version="1.0" encoding="utf-8"?>
<!-- Generator: Adobe Illustrator 24.1.1, SVG Export Plug-In . SVG Version: 6.00 Build 0)  -->
<svg version="1.1" id="Layer_1" xmlns="http://www.w3.org/2000/svg" xmlns:xlink="http://www.w3.org/1999/xlink" x="0px" y="0px"
	 viewBox="0 0 576 512" style="enable-background:new 0 0 576 512;" xml:space="preserve">
<style type="text/css">
	.st0{fill:#FFFFFF;}
</style>
<path class="st0" d="M160,48c0-26.5,21.5-48,48-48h48v80c0,8.8,7.2,16,16,16h32c8.8,0,16-7.2,16-16V0h48c26.5,0,48,21.5,48,48v128
	c0,26.5-21.5,48-48,48H208c-26.5,0-48-21.5-48-48V48z M96,288v80c0,8.8,7.2,16,16,16h32c8.8,0,16-7.2,16-16v-80h48
	c26.5,0,48,21.5,48,48v128c0,26.5-21.5,48-48,48H48c-26.5,0-48-21.5-48-48V336c0-26.5,21.5-48,48-48H96z M416,288v80
	c0,8.8,7.2,16,16,16h32c8.8,0,16-7.2,16-16v-80h48c26.5,0,48,21.5,48,48v128c0,26.5-21.5,48-48,48H368c-26.5,0-48-21.5-48-48V336
	c0-26.5,21.5-48,48-48H416z"/>
</svg>
