<?xml version="1.0" encoding="utf-8"?>
<!-- Generator: Adobe Illustrator 24.1.1, SVG Export Plug-In . SVG Version: 6.00 Build 0)  -->
<svg version="1.1" id="Layer_1" xmlns="http://www.w3.org/2000/svg" xmlns:xlink="http://www.w3.org/1999/xlink" x="0px" y="0px"
	 viewBox="0 0 640 512" style="enable-background:new 0 0 640 512;" xml:space="preserve">
<style type="text/css">
	.st0{fill:#FFFFFF;}
</style>
<path class="st0" d="M599.6,443.7C624.8,413.9,640,376.6,640,336c0-97.2-86-176-192-176c-0.3,0-0.6,0-0.9,0c0.4,5.3,0.9,10.6,0.9,16
	c0,98.6-79.7,181.2-186.1,202.5C282.7,455.1,357.1,512,448,512c33.7,0,65.3-8,92.8-22c24.4,12,55.3,22,91.5,22c3.1,0,5.8-1.7,7-4.6
	c1.2-2.9,0.7-6.1-1.4-8.4C637.6,498.7,615.9,475.3,599.6,443.7z"/>
<path class="st0" d="M416,176C416,78.8,322.9,0,208,0S0,78.8,0,176c0,39.6,15.6,76,41.7,105.4c-16.4,32.8-39.2,57.3-39.6,57.7
	c-2.1,2.2-2.7,5.5-1.4,8.4c1.3,2.9,4,4.6,7,4.6c38.3,0,70.8-11.1,95.7-24c30.8,15.1,66.4,24,104.6,24C322.9,352,416,273.2,416,176z"
	/>
<path d="M208.5,288c-13.8,0-24.5-10.7-24.5-24.5c0-13.8,10.7-24.5,24.5-24.5c13.8,0,24.5,10.7,24.5,24.5
	C232.9,277.3,222.2,288,208.5,288z"/>
<path d="M261.1,171.4l-34.3,21.4v1.5c0,9.9-8.4,18.4-18.4,18.4s-18.3-8.4-18.3-18.3v-12.3c0-6.1,3.1-12.2,9.2-16.1l43.6-26
	c5.3-3,8.4-8.4,8.4-14.5c0-9.2-7.6-16.8-16.8-16.8h-39.8c-9.2,0-16.8,7.6-16.8,16.8c0,9.9-8.4,18.4-18.4,18.4
	c-9.9,0-18.4-8.4-18.4-18.3c0-29.8,23.7-53.5,53.5-53.5h39.8c29.8,0,53.5,23.7,53.5,53.5C288,143.9,278.1,161.5,261.1,171.4z"/>
</svg>
