<?xml version="1.0" encoding="utf-8"?>
<!-- Generator: Adobe Illustrator 24.1.1, SVG Export Plug-In . SVG Version: 6.00 Build 0)  -->
<svg version="1.1" id="Layer_1" xmlns="http://www.w3.org/2000/svg" xmlns:xlink="http://www.w3.org/1999/xlink" x="0px" y="0px"
	 viewBox="0 0 512 512" style="enable-background:new 0 0 512 512;" xml:space="preserve">
<style type="text/css">
	.st0{fill:#FFFFFF;}
</style>
<path class="st0" d="M512,287.9l0,112c-0.9,44.2-35.9,80.1-80,80.1c-26.5,0-48-21.6-48-48.1V304.1c0-26.5,21.5-48.1,48-48.1
	c10.8,0,20.9,2.7,30.3,6.7C449.7,159.1,362.1,80.1,256,80.1s-193.7,79-206.3,182.6c9.4-4,19.5-6.7,30.3-6.7c26.5,0,48,21.6,48,48.1
	V432c0,26.4-21.5,48-48,48c-44.1,0-79.1-35.9-79.1-80.1L0,288C0,146.8,114.8,32,256,32c140.9,0,255.6,114.5,255.1,255.3
	C511.1,287.5,511.1,287.7,512,287.9z"/>
</svg>
