<?xml version="1.0" encoding="utf-8"?>
<!-- Generator: Adobe Illustrator 24.1.1, SVG Export Plug-In . SVG Version: 6.00 Build 0)  -->
<svg version="1.1" id="Layer_1" xmlns="http://www.w3.org/2000/svg" xmlns:xlink="http://www.w3.org/1999/xlink" x="0px" y="0px"
	 viewBox="0 0 384 512" style="enable-background:new 0 0 384 512;" xml:space="preserve">
<style type="text/css">
	.st0{fill:#FFFFFF;}
</style>
<path class="st0" d="M64,48c0-26.5,21.5-48,48-48h160c26.5,0,48,21.5,48,48H64z"/>
<path class="st0" d="M304,80c44.2,0,80,35.8,80,80v192c0,44.2-35.8,80-80,80H80c-44.2,0-80-35.8-80-80V160c0-44.2,35.8-80,80-80H304
	z"/>
<circle cx="192" cy="256" r="42.7"/>
<circle cx="245.3" cy="352" r="32"/>
<circle cx="138.7" cy="352" r="32"/>
<circle cx="245.3" cy="160" r="32"/>
<circle cx="138.7" cy="160" r="32"/>
<circle cx="96" cy="256" r="32"/>
<circle cx="288" cy="256" r="32"/>
<path class="st0" d="M112,512c-26.5,0-48-21.5-48-48h256c0,26.5-21.5,48-48,48H112z"/>
</svg>
